<svg id="Layer_1" data-name="Layer 1" xmlns="http://www.w3.org/2000/svg" viewBox="0 0 384.75 472.15">
  <defs>
    <style>
      .cls-1 {
        fill: #fff;
      }

      .cls-2 {
        font-size: 119px;
        font-family: RussianLandShadow-Regular, Russian Land Shadow;
      }
    </style>
  </defs>
  <title>logo_text_rusfont</title>
  <circle class="cls-1" cx="144.11" cy="234.63" r="109.5"/>
  <text class="cls-2" transform="matrix(0.87, -0.5, 0.5, 0.87, 57.72, 128.99)">b</text>
  <text class="cls-2" transform="translate(87.59 112.53) rotate(-20.26)">i</text>
  <text class="cls-2" transform="matrix(0.98, -0.19, 0.19, 0.98, 99.45, 107.14)">s</text>
  <text class="cls-2" transform="translate(128.5 100.58) rotate(1.81)">t</text>
  <text class="cls-2" transform="matrix(0.96, 0.26, -0.26, 0.96, 163.1, 101.28)">r</text>
  <text class="cls-2" transform="translate(194.02 109.02) rotate(28.87)">o</text>
  <text class="cls-2" transform="matrix(0.75, 0.66, -0.66, 0.75, 224.47, 125.8)"> </text>
  <text class="cls-2" transform="matrix(0.59, 0.8, -0.8, 0.59, 245.06, 142.85)">b</text>
  <text class="cls-2" transform="translate(265.04 169.22) rotate(66.47)">a</text>
  <text class="cls-2" transform="translate(277.8 197.11) rotate(79.3)">r</text>
  <text class="cls-2" transform="matrix(-0.05, 1, -1, -0.05, 284.37, 228.35)">b</text>
  <text class="cls-2" transform="translate(283.29 261.48) rotate(105.5)">u</text>
  <text class="cls-2" transform="matrix(-0.47, 0.88, -0.88, -0.47, 275.29, 291.76)">s</text>
  <text class="cls-2" transform="matrix(-0.65, 0.76, -0.76, -0.65, 261.78, 318.43)">h</text>
  <text class="cls-2" transform="matrix(-0.81, 0.59, -0.59, -0.81, 241.24, 343.24)">k</text>
  <text class="cls-2" transform="matrix(-0.92, 0.39, -0.39, -0.92, 214.33, 363.24)">a</text>
</svg>
