<svg id="Layer_1" data-name="Layer 1" xmlns="http://www.w3.org/2000/svg" viewBox="0 0 525.18 525.18">
  <defs>
    <style>
      .cls-1 {
        font-size: 32px;
        font-family: MyriadPro-Regular, Myriad Pro;
      }
    </style>
  </defs>
  <title>very_welcome</title>
  <text class="cls-1" transform="matrix(0.79, -0.62, 0.62, 0.79, 114.44, 79.09)"> </text>
  <text class="cls-1" transform="translate(121.54 73.41) rotate(-34.7)">д</text>
  <text class="cls-1" transform="translate(137.23 62.64) rotate(-30.01)">о</text>
  <text class="cls-1" transform="translate(154.38 52.85) rotate(-25.28)">б</text>
  <text class="cls-1" transform="matrix(0.94, -0.35, 0.35, 0.94, 171.65, 44.76)">р</text>
  <text class="cls-1" transform="translate(190.78 37.74) rotate(-15.55)">о</text>
  <text class="cls-1" transform="translate(209.98 32.64) rotate(-12.01)"> </text>
  <text class="cls-1" transform="translate(218.83 30.67) rotate(-8.51)">п</text>
  <text class="cls-1" transform="translate(238.12 27.87) rotate(-3.76)">о</text>
  <text class="cls-1" transform="matrix(1, 0.02, -0.02, 1, 257.56, 26.59)">ж</text>
  <text class="cls-1" transform="translate(281.36 27.39) rotate(6.36)">а</text>
  <text class="cls-1" transform="translate(299.09 29.44) rotate(10.8)">л</text>
  <text class="cls-1" transform="translate(317.15 32.95) rotate(15.47)">о</text>
  <text class="cls-1" transform="translate(336.16 38.34) rotate(20.11)">в</text>
  <text class="cls-1" transform="translate(353.24 44.69) rotate(24.49)">а</text>
  <text class="cls-1" transform="matrix(0.88, 0.48, -0.48, 0.88, 369.06, 52.02)">т</text>
  <text class="cls-1" transform="matrix(0.84, 0.54, -0.54, 0.84, 382.42, 59.29)">ь</text>
  <text class="cls-1" transform="translate(397.69 69.25) rotate(35.82)"> </text>
  <text class="cls-1" transform="matrix(0.79, 0.62, -0.62, 0.79, 405.11, 74.67)"> </text>
  <text class="cls-1" transform="translate(412.33 80.38) rotate(40.26)"> </text>
  <text class="cls-1" transform="translate(419.32 86.19) rotate(43.69)">д</text>
  <text class="cls-1" transform="translate(433.03 99.38) rotate(48.35)">о</text>
  <text class="cls-1" transform="matrix(0.6, 0.8, -0.8, 0.6, 446.09, 114.22)">б</text>
  <text class="cls-1" transform="translate(457.51 129.51) rotate(57.83)">р</text>
  <text class="cls-1" transform="matrix(0.46, 0.89, -0.89, 0.46, 468.26, 146.8)">о</text>
  <text class="cls-1" transform="translate(477.16 164.57) rotate(66.24)"> </text>
  <text class="cls-1" transform="translate(480.9 172.84) rotate(69.75)">п</text>
  <text class="cls-1" transform="translate(487.57 191.15) rotate(74.55)">о</text>
  <text class="cls-1" transform="translate(492.75 209.9) rotate(79.76)">ж</text>
  <text class="cls-1" transform="matrix(0.09, 1, -1, 0.09, 496.75, 233.38)">а</text>
  <text class="cls-1" transform="translate(498.26 251.17) rotate(89.07)">л</text>
  <text class="cls-1" transform="translate(498.47 269.58) rotate(93.77)">о</text>
  <text class="cls-1" transform="translate(497.05 289.29) rotate(98.37)">в</text>
  <text class="cls-1" transform="translate(494.31 307.3) rotate(102.74)">а</text>
  <text class="cls-1" transform="translate(490.35 324.3) rotate(106.73)">т</text>
  <text class="cls-1" transform="translate(485.96 338.82) rotate(110.79)">ь</text>
  <text class="cls-1" transform="translate(479.3 355.81) rotate(114.13)"> </text>
  <text class="cls-1" transform="matrix(-0.44, 0.9, -0.9, -0.44, 475.5, 364.18)"> </text>
  <text class="cls-1" transform="translate(471.54 372.35) rotate(119.82)">д</text>
  <text class="cls-1" transform="translate(462.02 388.81) rotate(124.52)">о</text>
  <text class="cls-1" transform="matrix(-0.63, 0.77, -0.77, -0.63, 450.73, 405.04)">б</text>
  <text class="cls-1" transform="matrix(-0.69, 0.72, -0.72, -0.69, 438.61, 419.8)">р</text>
  <text class="cls-1" transform="translate(424.38 434.38) rotate(138.83)">о</text>
  <text class="cls-1" transform="matrix(-0.79, 0.61, -0.61, -0.79, 409.28, 447.28)"> </text>
  <text class="cls-1" transform="matrix(-0.83, 0.56, -0.56, -0.83, 402.15, 452.9)">п</text>
  <text class="cls-1" transform="matrix(-0.87, 0.49, -0.49, -0.87, 385.96, 463.8)">о</text>
  <text class="cls-1" transform="translate(369.03 473.35) rotate(155.76)">ж</text>
  <text class="cls-1" transform="translate(347.22 482.9) rotate(160.86)">а</text>
  <text class="cls-1" transform="translate(330.35 488.68) rotate(165.33)">л</text>
  <text class="cls-1" transform="translate(312.54 493.28) rotate(169.98)">о</text>
  <text class="cls-1" transform="translate(293.04 496.6) rotate(174.6)">в</text>
  <text class="cls-1" transform="translate(274.88 498.22) rotate(178.91)">а</text>
  <text class="cls-1" transform="translate(257.43 498.44) rotate(-177.19)">т</text>
  <text class="cls-1" transform="translate(242.27 497.68) rotate(-173.2)">ь</text>
  <text class="cls-1" transform="matrix(-0.98, -0.18, 0.18, -0.98, 224.17, 495.32)"> </text>
  <text class="cls-1" transform="translate(215.13 493.66) rotate(-167.62)"> </text>
  <text class="cls-1" transform="translate(206.24 491.79) rotate(-164.16)">д</text>
  <text class="cls-1" transform="matrix(-0.94, -0.35, 0.35, -0.94, 187.96, 486.53)">о</text>
  <text class="cls-1" transform="matrix(-0.9, -0.43, 0.43, -0.9, 169.51, 479.49)">б</text>
  <text class="cls-1" transform="translate(152.28 471.27) rotate(-149.87)">р</text>
  <text class="cls-1" transform="matrix(-0.82, -0.57, 0.57, -0.82, 134.71, 460.95)">о</text>
  <text class="cls-1" transform="translate(118.58 449.37) rotate(-141.51)"> </text>
  <text class="cls-1" transform="matrix(-0.74, -0.67, 0.67, -0.74, 111.41, 443.78)">п</text>
  <text class="cls-1" transform="matrix(-0.69, -0.73, 0.73, -0.69, 96.98, 430.69)">о</text>
  <text class="cls-1" transform="matrix(-0.62, -0.79, 0.79, -0.62, 83.61, 416.51)">ж</text>
  <text class="cls-1" transform="matrix(-0.55, -0.84, 0.84, -0.55, 69.11, 397.65)">а</text>
  <text class="cls-1" transform="translate(59.43 382.66) rotate(-118.66)">л</text>
  <text class="cls-1" transform="translate(50.65 366.48) rotate(-114.01)">о</text>
  <text class="cls-1" transform="matrix(-0.33, -0.94, 0.94, -0.33, 42.72, 348.38)">в</text>
  <text class="cls-1" transform="matrix(-0.26, -0.97, 0.97, -0.26, 36.77, 331.16)">а</text>
  <text class="cls-1" transform="translate(32.37 314.28) rotate(-100.99)">т</text>
  <text class="cls-1" transform="matrix(-0.12, -0.99, 0.99, -0.12, 29.5, 299.38)">ь</text>
  <text class="cls-1" transform="translate(27.48 281.22) rotate(-93.65)"> </text>
  <text class="cls-1" transform="matrix(-0.03, -1, 1, -0.03, 26.94, 272.05)"> </text>
  <text class="cls-1" transform="matrix(0.03, -1, 1, 0.03, 26.63, 262.95)">д</text>
  <text class="cls-1" transform="translate(27.34 243.94) rotate(-83.4)">о</text>
  <text class="cls-1" transform="translate(29.71 224.34) rotate(-78.68)">б</text>
  <text class="cls-1" transform="translate(33.52 205.65) rotate(-73.86)">р</text>
  <text class="cls-1" transform="matrix(0.36, -0.93, 0.93, 0.36, 39.29, 186.11)">о</text>
  <text class="cls-1" transform="translate(46.64 167.65) rotate(-65.41)"> </text>
</svg>
