<svg id="Layer_1" data-name="Layer 1" xmlns="http://www.w3.org/2000/svg" viewBox="0 0 450.09 264.77">
  <defs>
    <style>
      .cls-1 {
        font-size: 34px;
        font-family: MyriadPro-Regular, Myriad Pro;
      }
    </style>
  </defs>
  <title>welcome</title>
  <text class="cls-1" transform="translate(87.65 80.77) rotate(-38.08)"> </text>
  <text class="cls-1" transform="translate(95.18 74.75) rotate(-34.44)">д</text>
  <text class="cls-1" transform="translate(111.9 63.38) rotate(-29.46)">о</text>
  <text class="cls-1" transform="translate(130.21 53.17) rotate(-24.43)">б</text>
  <text class="cls-1" transform="translate(148.66 44.87) rotate(-19.32)">р</text>
  <text class="cls-1" transform="translate(169.11 37.83) rotate(-14.11)">о</text>
  <text class="cls-1" transform="matrix(0.98, -0.18, 0.18, 0.98, 189.64, 32.94)"> </text>
  <text class="cls-1" transform="translate(199.09 31.11) rotate(-6.65)">п</text>
  <text class="cls-1" transform="translate(219.69 28.81) rotate(-1.62)">о</text>
  <text class="cls-1" transform="translate(240.35 28.23) rotate(3.8)">ж</text>
  <text class="cls-1" transform="matrix(0.99, 0.16, -0.16, 0.99, 265.56, 30.17)">а</text>
  <text class="cls-1" transform="translate(284.22 33.26) rotate(13.88)">л</text>
  <text class="cls-1" transform="translate(303.17 38.02) rotate(18.84)">о</text>
  <text class="cls-1" transform="translate(323 44.93) rotate(23.77)">в</text>
  <text class="cls-1" transform="translate(340.66 52.82) rotate(28.41)">а</text>
  <text class="cls-1" transform="matrix(0.84, 0.54, -0.54, 0.84, 356.88, 61.74)">т</text>
  <text class="cls-1" transform="translate(370.46 70.46) rotate(36.89)">ь</text>
  <text class="cls-1" transform="matrix(0.76, 0.65, -0.65, 0.76, 385.82, 82.27)"> </text>
</svg>
